<svg xmlns="http://www.w3.org/2000/svg" viewBox="0 0 512 512">
  <circle cx="256" cy="256" r="240" fill="#4285f4" />
  <path d="M256 120c-74.4 0-135 60.6-135 135s60.6 135 135 135 135-60.6 135-135S330.4 120 256 120zm0 240c-57.9 0-105-47.1-105-105s47.1-105 105-105 105 47.1 105 105-47.1 105-105 105z" fill="#ffffff" />
  <path d="M320 230h-50v-50c0-7.7-6.3-14-14-14s-14 6.3-14 14v50h-50c-7.7 0-14 6.3-14 14s6.3 14 14 14h50v50c0 7.7 6.3 14 14 14s14-6.3 14-14v-50h50c7.7 0 14-6.3 14-14s-6.3-14-14-14z" fill="#ffffff" />
  <path d="M380 346l-40-40c-5.5-5.5-14.3-5.5-19.8 0s-5.5 14.3 0 19.8l15.1 15.1-35.3 35.3c-5.5 5.5-5.5 14.3 0 19.8 2.8 2.8 6.4 4.1 10 4.1s7.2-1.4 10-4.1l35.3-35.3 15.1 15.1c2.8 2.8 6.4 4.1 10 4.1s7.2-1.4 10-4.1c5.4-5.5 5.4-14.3-.4-19.8z" fill="#ffffff" />
</svg> 